<svg xmlns="http://www.w3.org/2000/svg" viewBox="0 0 900 620" role="img" aria-labelledby="t d"><title id="t">Microbial fuel cell project visual</title><desc id="d">Stylised two-chamber microbial fuel cell with electrodes, bridge and hydrogen bubbles.</desc><defs><linearGradient id="bg" x1="0" y1="0" x2="1" y2="1"><stop stop-color="#141918"/><stop offset="1" stop-color="#222a25"/></linearGradient><linearGradient id="liq" x1="0" y1="0" x2="0" y2="1"><stop stop-color="#87b46c" stop-opacity=".35"/><stop offset="1" stop-color="#4d6d45" stop-opacity=".8"/></linearGradient><filter id="glow"><feGaussianBlur stdDeviation="5" result="b"/><feMerge><feMergeNode in="b"/><feMergeNode in="SourceGraphic"/></feMerge></filter></defs><rect width="900" height="620" fill="url(#bg)"/><g stroke="#a7b0a8" stroke-width="5" fill="none"><path d="M210 160 V474 H390 V160"/><path d="M510 160 V474 H690 V160"/><path d="M390 258 C435 225 465 225 510 258"/></g><path d="M216 290 H384 V468 H216Z" fill="url(#liq)"/><path d="M516 290 H684 V468 H516Z" fill="#6789aa" opacity=".45"/><g stroke="#d9e3dc" stroke-width="10"><path d="M280 198 V414"/><path d="M620 198 V414"/></g><g stroke="#d9e3dc" stroke-width="4" fill="none"><path d="M280 198 C320 95 580 95 620 198"/><rect x="414" y="74" width="74" height="44" rx="8"/></g><g fill="#b7ffad" filter="url(#glow)"><circle cx="250" cy="414" r="9"/><circle cx="304" cy="384" r="7"/><circle cx="334" cy="435" r="11"/><circle cx="254" cy="354" r="6"/></g><g fill="#9ed8ff" filter="url(#glow)"><circle cx="561" cy="424" r="8"/><circle cx="606" cy="390" r="7"/><circle cx="645" cy="438" r="10"/></g><g font-family="Arial,Helvetica,sans-serif" fill="#eef2ef"><text x="54" y="70" font-size="21" letter-spacing="4">MICROBIAL FUEL CELL</text><text x="54" y="101" font-size="15" letter-spacing="3" opacity=".62">BIO-WASTE · ELECTROCHEMISTRY · HYDROGEN</text><text x="230" y="530" font-size="15" letter-spacing="2" opacity=".7">ANODE</text><text x="566" y="530" font-size="15" letter-spacing="2" opacity=".7">CATHODE</text></g></svg>